<svg xmlns="http://www.w3.org/2000/svg" xmlns:xlink="http://www.w3.org/1999/xlink" width="500" zoomAndPan="magnify" viewBox="0 0 375 374.999991" height="500" preserveAspectRatio="xMidYMid meet" version="1.0"><defs><g/><clipPath id="dbb805d580"><path d="M 180.589844 84.746094 L 199.628906 84.746094 L 199.628906 103.785156 L 180.589844 103.785156 Z M 180.589844 84.746094 " clip-rule="nonzero"/></clipPath><clipPath id="c60840077f"><path d="M 190.109375 84.746094 C 184.851562 84.746094 180.589844 89.007812 180.589844 94.265625 C 180.589844 99.523438 184.851562 103.785156 190.109375 103.785156 C 195.367188 103.785156 199.628906 99.523438 199.628906 94.265625 C 199.628906 89.007812 195.367188 84.746094 190.109375 84.746094 Z M 190.109375 84.746094 " clip-rule="nonzero"/></clipPath><clipPath id="1c50c33330"><path d="M 221.992188 148.929688 L 234.402344 148.929688 L 234.402344 161.339844 L 221.992188 161.339844 Z M 221.992188 148.929688 " clip-rule="nonzero"/></clipPath><clipPath id="141f154f16"><path d="M 228.199219 148.929688 C 224.769531 148.929688 221.992188 151.707031 221.992188 155.132812 C 221.992188 158.558594 224.769531 161.339844 228.199219 161.339844 C 231.625 161.339844 234.402344 158.558594 234.402344 155.132812 C 234.402344 151.707031 231.625 148.929688 228.199219 148.929688 Z M 228.199219 148.929688 " clip-rule="nonzero"/></clipPath><clipPath id="f11a9db4f5"><path d="M 138.757812 258.089844 L 154.875 258.089844 L 154.875 274.207031 L 138.757812 274.207031 Z M 138.757812 258.089844 " clip-rule="nonzero"/></clipPath><clipPath id="dc9afa4656"><path d="M 146.816406 258.089844 C 142.363281 258.089844 138.757812 261.699219 138.757812 266.148438 C 138.757812 270.601562 142.363281 274.207031 146.816406 274.207031 C 151.265625 274.207031 154.875 270.601562 154.875 266.148438 C 154.875 261.699219 151.265625 258.089844 146.816406 258.089844 Z M 146.816406 258.089844 " clip-rule="nonzero"/></clipPath></defs><g fill="#fbfbf5" fill-opacity="1"><g transform="translate(82.689241, 272.682668)"><g><path d="M 11.875 -17.34375 L 11.875 -15.234375 L 11.625 -15.234375 L 11.625 -15.609375 C 11.625 -15.941406 11.503906 -16.226562 11.265625 -16.46875 C 11.035156 -16.71875 10.742188 -16.84375 10.390625 -16.84375 L 5.078125 -16.84375 L 5.078125 -9.0625 L 9.34375 -9.0625 C 9.675781 -9.082031 9.957031 -9.207031 10.1875 -9.4375 C 10.425781 -9.675781 10.546875 -9.960938 10.546875 -10.296875 L 10.546875 -10.671875 L 10.796875 -10.671875 L 10.796875 -6.703125 L 10.546875 -6.703125 L 10.546875 -7.078125 C 10.546875 -7.410156 10.429688 -7.691406 10.203125 -7.921875 C 9.984375 -8.160156 9.703125 -8.289062 9.359375 -8.3125 L 5.078125 -8.3125 L 5.078125 -1.84375 C 5.078125 -1.40625 5.238281 -1.03125 5.5625 -0.71875 C 5.882812 -0.40625 6.265625 -0.25 6.703125 -0.25 L 7.015625 -0.25 L 7.015625 0 L 1.515625 0 L 1.515625 -0.25 L 1.84375 -0.25 C 2.269531 -0.25 2.640625 -0.40625 2.953125 -0.71875 C 3.265625 -1.03125 3.429688 -1.40625 3.453125 -1.84375 L 3.453125 -15.9375 C 3.453125 -16.332031 3.285156 -16.671875 2.953125 -16.953125 C 2.628906 -17.234375 2.257812 -17.375 1.84375 -17.375 L 1.53125 -17.375 L 1.515625 -17.625 L 8.890625 -17.625 C 9.410156 -17.625 9.972656 -17.671875 10.578125 -17.765625 C 11.191406 -17.867188 11.625 -17.972656 11.875 -18.078125 Z M 11.875 -17.34375 "/></g></g></g><g fill="#fbfbf5" fill-opacity="1"><g transform="translate(96.300901, 272.682668)"><g><path d="M 16.609375 -0.25 L 16.8125 -0.25 L 16.8125 0 L 11.65625 0 L 11.65625 -0.25 L 11.859375 -0.25 C 12.171875 -0.25 12.410156 -0.359375 12.578125 -0.578125 C 12.753906 -0.796875 12.84375 -1 12.84375 -1.1875 C 12.84375 -1.382812 12.804688 -1.578125 12.734375 -1.765625 L 11.359375 -5.109375 L 4.984375 -5.109375 L 3.59375 -1.84375 C 3.507812 -1.625 3.46875 -1.414062 3.46875 -1.21875 C 3.46875 -1.03125 3.550781 -0.820312 3.71875 -0.59375 C 3.894531 -0.363281 4.148438 -0.25 4.484375 -0.25 L 4.6875 -0.25 L 4.6875 0 L -0.125 0 L -0.125 -0.25 L 0.078125 -0.25 C 0.429688 -0.25 0.785156 -0.367188 1.140625 -0.609375 C 1.503906 -0.859375 1.800781 -1.226562 2.03125 -1.71875 C 5.707031 -9.5625 7.625 -13.671875 7.78125 -14.046875 C 8.0625 -14.753906 8.210938 -15.222656 8.234375 -15.453125 L 8.453125 -15.453125 L 14.671875 -1.71875 C 15.160156 -0.738281 15.804688 -0.25 16.609375 -0.25 Z M 5.3125 -5.859375 L 11.046875 -5.859375 L 8.234375 -12.765625 Z M 5.3125 -5.859375 "/></g></g></g><g fill="#fbfbf5" fill-opacity="1"><g transform="translate(112.982105, 272.682668)"><g><path d="M 1.90625 -13.09375 L 1.90625 -12.6875 L 1.640625 -12.6875 L 1.640625 -15.53125 C 1.859375 -15.425781 2.253906 -15.335938 2.828125 -15.265625 C 3.410156 -15.191406 3.953125 -15.144531 4.453125 -15.125 L 10.25 -15.125 C 10.769531 -15.125 11.332031 -15.15625 11.9375 -15.21875 C 12.539062 -15.289062 12.925781 -15.367188 13.09375 -15.453125 L 13.09375 -15.234375 L 3.53125 -0.75 L 10.421875 -0.75 C 11.191406 -0.769531 11.84375 -0.910156 12.375 -1.171875 C 12.914062 -1.429688 13.320312 -1.742188 13.59375 -2.109375 C 13.875 -2.484375 14.148438 -2.976562 14.421875 -3.59375 L 14.671875 -3.59375 L 13.3125 0 L 1.265625 0 L 1.265625 -0.21875 L 10.640625 -14.375 L 3.140625 -14.375 C 2.640625 -14.351562 2.28125 -14.132812 2.0625 -13.71875 C 1.957031 -13.519531 1.90625 -13.3125 1.90625 -13.09375 Z M 1.90625 -13.09375 "/></g></g></g><g fill="#fbfbf5" fill-opacity="1"><g transform="translate(128.279502, 272.682668)"><g><path d="M 1.734375 -0.25 C 2.191406 -0.25 2.585938 -0.382812 2.921875 -0.65625 C 3.253906 -0.925781 3.421875 -1.242188 3.421875 -1.609375 L 3.421875 -13.484375 C 3.421875 -13.859375 3.253906 -14.175781 2.921875 -14.4375 C 2.585938 -14.707031 2.1875 -14.84375 1.71875 -14.84375 L 1.390625 -14.84375 L 1.390625 -15.109375 L 7.078125 -15.109375 L 7.078125 -14.84375 L 6.75 -14.84375 C 6.289062 -14.84375 5.894531 -14.71875 5.5625 -14.46875 C 5.238281 -14.21875 5.0625 -13.910156 5.03125 -13.546875 L 5.03125 -1.578125 C 5.050781 -1.210938 5.226562 -0.898438 5.5625 -0.640625 C 5.894531 -0.378906 6.289062 -0.25 6.75 -0.25 L 7.078125 -0.25 L 7.09375 0 L 1.390625 0 L 1.390625 -0.25 Z M 1.734375 -0.25 "/></g></g></g><g fill="#fbfbf5" fill-opacity="1"><g transform="translate(136.736113, 272.682668)"><g/></g></g><g fill="#fbfbf5" fill-opacity="1"><g transform="translate(143.026163, 272.682668)"><g/></g></g><g fill="#fbfbf5" fill-opacity="1"><g transform="translate(149.316213, 272.682668)"><g/></g></g><g fill="#fbfbf5" fill-opacity="1"><g transform="translate(155.615018, 272.682668)"><g><path d="M 1.84375 -0.25 C 2.269531 -0.25 2.640625 -0.40625 2.953125 -0.71875 C 3.265625 -1.03125 3.429688 -1.40625 3.453125 -1.84375 L 3.453125 -15.78125 C 3.429688 -16.21875 3.265625 -16.59375 2.953125 -16.90625 C 2.640625 -17.21875 2.269531 -17.375 1.84375 -17.375 L 1.515625 -17.375 L 1.515625 -17.625 L 7.015625 -17.625 L 7.015625 -17.375 L 6.703125 -17.375 C 6.097656 -17.375 5.632812 -17.113281 5.3125 -16.59375 C 5.15625 -16.332031 5.078125 -16.0625 5.078125 -15.78125 L 5.078125 -0.78125 L 8.6875 -0.78125 C 9.925781 -0.78125 10.875 -1.054688 11.53125 -1.609375 C 12.1875 -2.160156 12.734375 -2.984375 13.171875 -4.078125 L 13.421875 -4.078125 L 11.953125 0 L 1.515625 0 L 1.515625 -0.25 Z M 1.84375 -0.25 "/></g></g></g><g fill="#fbfbf5" fill-opacity="1"><g transform="translate(169.755051, 272.682668)"><g><path d="M 16.734375 -14.84375 L 16.359375 -14.84375 C 15.910156 -14.84375 15.566406 -14.671875 15.328125 -14.328125 C 15.222656 -14.171875 15.164062 -13.992188 15.15625 -13.796875 L 15.15625 -5.3125 C 15.15625 -3.5625 14.597656 -2.175781 13.484375 -1.15625 C 12.367188 -0.144531 10.835938 0.359375 8.890625 0.359375 C 6.941406 0.359375 5.40625 -0.144531 4.28125 -1.15625 C 3.15625 -2.164062 2.59375 -3.539062 2.59375 -5.28125 L 2.59375 -13.765625 C 2.59375 -14.066406 2.472656 -14.320312 2.234375 -14.53125 C 2.003906 -14.738281 1.722656 -14.84375 1.390625 -14.84375 L 1 -14.84375 L 1 -15.109375 L 5.796875 -15.109375 L 5.796875 -14.84375 L 5.40625 -14.84375 C 5.070312 -14.84375 4.785156 -14.738281 4.546875 -14.53125 C 4.316406 -14.320312 4.203125 -14.066406 4.203125 -13.765625 L 4.203125 -5.59375 C 4.203125 -3.957031 4.617188 -2.671875 5.453125 -1.734375 C 6.285156 -0.796875 7.457031 -0.328125 8.96875 -0.328125 C 10.488281 -0.328125 11.707031 -0.769531 12.625 -1.65625 C 13.539062 -2.550781 14 -3.769531 14 -5.3125 L 14 -13.765625 C 13.976562 -14.085938 13.851562 -14.347656 13.625 -14.546875 C 13.40625 -14.742188 13.125 -14.84375 12.78125 -14.84375 L 12.40625 -14.84375 L 12.40625 -15.109375 L 16.734375 -15.109375 Z M 16.734375 -14.84375 "/></g></g></g><g fill="#fbfbf5" fill-opacity="1"><g transform="translate(187.367186, 272.682668)"><g><path d="M 16.0625 0 L 10.09375 0 L 10.09375 -0.25 L 10.40625 -0.25 C 10.738281 -0.25 10.984375 -0.363281 11.140625 -0.59375 C 11.304688 -0.820312 11.390625 -1.003906 11.390625 -1.140625 C 11.390625 -1.285156 11.347656 -1.429688 11.265625 -1.578125 L 7.78125 -6.5625 L 4.109375 -1.609375 C 3.992188 -1.460938 3.9375 -1.3125 3.9375 -1.15625 C 3.9375 -1.007812 4.015625 -0.820312 4.171875 -0.59375 C 4.328125 -0.363281 4.582031 -0.25 4.9375 -0.25 L 5.234375 -0.25 L 5.234375 0 L -0.25 0 L -0.25 -0.25 L 0.078125 -0.25 C 0.984375 -0.25 1.78125 -0.660156 2.46875 -1.484375 L 7.15625 -7.46875 L 2.90625 -13.59375 C 2.644531 -13.945312 2.289062 -14.242188 1.84375 -14.484375 C 1.40625 -14.722656 0.953125 -14.84375 0.484375 -14.84375 L 0.15625 -14.84375 L 0.15625 -15.109375 L 6.078125 -15.109375 L 6.078125 -14.84375 L 5.765625 -14.84375 C 5.429688 -14.84375 5.179688 -14.726562 5.015625 -14.5 C 4.859375 -14.28125 4.78125 -14.097656 4.78125 -13.953125 C 4.78125 -13.816406 4.832031 -13.671875 4.9375 -13.515625 L 8.140625 -8.9375 L 11.1875 -13.515625 C 11.28125 -13.648438 11.328125 -13.789062 11.328125 -13.9375 C 11.328125 -14.09375 11.25 -14.28125 11.09375 -14.5 C 10.9375 -14.726562 10.691406 -14.84375 10.359375 -14.84375 L 10.046875 -14.84375 L 10.046875 -15.109375 L 15.640625 -15.109375 L 15.640625 -14.84375 L 15.28125 -14.84375 C 14.8125 -14.84375 14.363281 -14.722656 13.9375 -14.484375 C 13.507812 -14.242188 13.15625 -13.9375 12.875 -13.5625 L 8.8125 -7.921875 L 13.328125 -1.484375 C 13.691406 -0.992188 14.101562 -0.664062 14.5625 -0.5 C 15.03125 -0.332031 15.421875 -0.25 15.734375 -0.25 L 16.0625 -0.25 Z M 16.0625 0 "/></g></g></g><g fill="#fbfbf5" fill-opacity="1"><g transform="translate(203.117471, 272.682668)"><g><path d="M 1.734375 -0.25 C 2.140625 -0.25 2.476562 -0.378906 2.75 -0.640625 C 3.03125 -0.898438 3.179688 -1.210938 3.203125 -1.578125 L 3.203125 -13.546875 C 3.203125 -13.910156 3.054688 -14.21875 2.765625 -14.46875 C 2.484375 -14.71875 2.140625 -14.84375 1.734375 -14.84375 L 1.390625 -14.84375 L 1.390625 -15.109375 L 8.734375 -15.109375 C 9.421875 -15.109375 10.023438 -15.15625 10.546875 -15.25 C 11.066406 -15.351562 11.398438 -15.4375 11.546875 -15.5 L 11.546875 -12.640625 L 11.28125 -12.65625 L 11.28125 -13.03125 C 11.28125 -13.382812 11.160156 -13.6875 10.921875 -13.9375 C 10.691406 -14.195312 10.390625 -14.328125 10.015625 -14.328125 L 4.78125 -14.328125 L 4.78125 -7.921875 L 9.09375 -7.921875 C 9.425781 -7.921875 9.679688 -8.019531 9.859375 -8.21875 C 10.035156 -8.425781 10.125 -8.679688 10.125 -8.984375 L 10.125 -9.3125 L 10.390625 -9.3125 L 10.390625 -5.796875 L 10.125 -5.796875 L 10.125 -6.109375 C 10.125 -6.585938 9.945312 -6.910156 9.59375 -7.078125 C 9.457031 -7.128906 9.3125 -7.160156 9.15625 -7.171875 L 4.78125 -7.171875 L 4.78125 -0.78125 L 8.734375 -0.78125 C 9.503906 -0.78125 10.15625 -0.910156 10.6875 -1.171875 C 11.21875 -1.441406 11.617188 -1.757812 11.890625 -2.125 C 12.171875 -2.5 12.453125 -2.988281 12.734375 -3.59375 L 12.984375 -3.59375 L 11.609375 0 L 1.390625 0 L 1.390625 -0.25 Z M 1.734375 -0.25 "/></g></g></g><g fill="#fbfbf5" fill-opacity="1"><g transform="translate(216.854935, 272.682668)"><g/></g></g><g fill="#fbfbf5" fill-opacity="1"><g transform="translate(223.144985, 272.682668)"><g><path d="M 7.65625 0 L 1.515625 0 L 1.53125 -0.25 L 1.84375 -0.25 C 2.269531 -0.25 2.640625 -0.398438 2.953125 -0.703125 C 3.265625 -1.003906 3.429688 -1.375 3.453125 -1.8125 L 3.453125 -15.8125 C 3.453125 -16.25 3.289062 -16.617188 2.96875 -16.921875 C 2.644531 -17.222656 2.269531 -17.375 1.84375 -17.375 L 1.53125 -17.375 L 1.515625 -17.625 L 6.515625 -17.625 C 8.242188 -17.625 9.585938 -17.238281 10.546875 -16.46875 C 11.503906 -15.707031 11.984375 -14.691406 11.984375 -13.421875 C 11.984375 -12.410156 11.710938 -11.570312 11.171875 -10.90625 C 10.640625 -10.25 9.988281 -9.8125 9.21875 -9.59375 C 10.539062 -9.382812 11.585938 -8.835938 12.359375 -7.953125 C 13.128906 -7.066406 13.515625 -5.945312 13.515625 -4.59375 C 13.515625 -3.238281 13 -2.132812 11.96875 -1.28125 C 10.9375 -0.425781 9.5 0 7.65625 0 Z M 5.078125 -0.90625 L 7.546875 -0.90625 C 7.566406 -0.90625 7.585938 -0.90625 7.609375 -0.90625 C 8.878906 -0.90625 9.863281 -1.253906 10.5625 -1.953125 C 11.269531 -2.648438 11.625 -3.632812 11.625 -4.90625 C 11.625 -5.625 11.503906 -6.253906 11.265625 -6.796875 C 11.023438 -7.347656 10.71875 -7.785156 10.34375 -8.109375 C 9.375 -8.910156 7.914062 -9.3125 5.96875 -9.3125 C 5.96875 -9.3125 5.957031 -9.3125 5.9375 -9.3125 L 5.9375 -9.546875 C 5.957031 -9.546875 6.035156 -9.546875 6.171875 -9.546875 C 6.316406 -9.546875 6.523438 -9.5625 6.796875 -9.59375 C 7.066406 -9.625 7.367188 -9.679688 7.703125 -9.765625 C 8.035156 -9.847656 8.335938 -9.984375 8.609375 -10.171875 C 8.878906 -10.359375 9.128906 -10.578125 9.359375 -10.828125 C 9.847656 -11.378906 10.09375 -12.203125 10.09375 -13.296875 C 10.09375 -14.398438 9.773438 -15.257812 9.140625 -15.875 C 8.515625 -16.5 7.609375 -16.8125 6.421875 -16.8125 L 5.078125 -16.8125 Z M 5.078125 -0.90625 "/></g></g></g><g fill="#fbfbf5" fill-opacity="1"><g transform="translate(237.888854, 272.682668)"><g><path d="M 1.734375 -0.25 C 2.140625 -0.25 2.476562 -0.378906 2.75 -0.640625 C 3.03125 -0.898438 3.179688 -1.210938 3.203125 -1.578125 L 3.203125 -13.546875 C 3.203125 -13.910156 3.054688 -14.21875 2.765625 -14.46875 C 2.484375 -14.71875 2.140625 -14.84375 1.734375 -14.84375 L 1.390625 -14.84375 L 1.390625 -15.109375 L 8.734375 -15.109375 C 9.421875 -15.109375 10.023438 -15.15625 10.546875 -15.25 C 11.066406 -15.351562 11.398438 -15.4375 11.546875 -15.5 L 11.546875 -12.640625 L 11.28125 -12.65625 L 11.28125 -13.03125 C 11.28125 -13.382812 11.160156 -13.6875 10.921875 -13.9375 C 10.691406 -14.195312 10.390625 -14.328125 10.015625 -14.328125 L 4.78125 -14.328125 L 4.78125 -7.921875 L 9.09375 -7.921875 C 9.425781 -7.921875 9.679688 -8.019531 9.859375 -8.21875 C 10.035156 -8.425781 10.125 -8.679688 10.125 -8.984375 L 10.125 -9.3125 L 10.390625 -9.3125 L 10.390625 -5.796875 L 10.125 -5.796875 L 10.125 -6.109375 C 10.125 -6.585938 9.945312 -6.910156 9.59375 -7.078125 C 9.457031 -7.128906 9.3125 -7.160156 9.15625 -7.171875 L 4.78125 -7.171875 L 4.78125 -0.78125 L 8.734375 -0.78125 C 9.503906 -0.78125 10.15625 -0.910156 10.6875 -1.171875 C 11.21875 -1.441406 11.617188 -1.757812 11.890625 -2.125 C 12.171875 -2.5 12.453125 -2.988281 12.734375 -3.59375 L 12.984375 -3.59375 L 11.609375 0 L 1.390625 0 L 1.390625 -0.25 Z M 1.734375 -0.25 "/></g></g></g><g fill="#fbfbf5" fill-opacity="1"><g transform="translate(251.626318, 272.682668)"><g><path d="M 16.609375 -0.25 L 16.8125 -0.25 L 16.8125 0 L 11.65625 0 L 11.65625 -0.25 L 11.859375 -0.25 C 12.171875 -0.25 12.410156 -0.359375 12.578125 -0.578125 C 12.753906 -0.796875 12.84375 -1 12.84375 -1.1875 C 12.84375 -1.382812 12.804688 -1.578125 12.734375 -1.765625 L 11.359375 -5.109375 L 4.984375 -5.109375 L 3.59375 -1.84375 C 3.507812 -1.625 3.46875 -1.414062 3.46875 -1.21875 C 3.46875 -1.03125 3.550781 -0.820312 3.71875 -0.59375 C 3.894531 -0.363281 4.148438 -0.25 4.484375 -0.25 L 4.6875 -0.25 L 4.6875 0 L -0.125 0 L -0.125 -0.25 L 0.078125 -0.25 C 0.429688 -0.25 0.785156 -0.367188 1.140625 -0.609375 C 1.503906 -0.859375 1.800781 -1.226562 2.03125 -1.71875 C 5.707031 -9.5625 7.625 -13.671875 7.78125 -14.046875 C 8.0625 -14.753906 8.210938 -15.222656 8.234375 -15.453125 L 8.453125 -15.453125 L 14.671875 -1.71875 C 15.160156 -0.738281 15.804688 -0.25 16.609375 -0.25 Z M 5.3125 -5.859375 L 11.046875 -5.859375 L 8.234375 -12.765625 Z M 5.3125 -5.859375 "/></g></g></g><g fill="#fbfbf5" fill-opacity="1"><g transform="translate(268.307523, 272.682668)"><g><path d="M 16.734375 -14.84375 L 16.359375 -14.84375 C 15.910156 -14.84375 15.566406 -14.671875 15.328125 -14.328125 C 15.222656 -14.171875 15.164062 -13.992188 15.15625 -13.796875 L 15.15625 -5.3125 C 15.15625 -3.5625 14.597656 -2.175781 13.484375 -1.15625 C 12.367188 -0.144531 10.835938 0.359375 8.890625 0.359375 C 6.941406 0.359375 5.40625 -0.144531 4.28125 -1.15625 C 3.15625 -2.164062 2.59375 -3.539062 2.59375 -5.28125 L 2.59375 -13.765625 C 2.59375 -14.066406 2.472656 -14.320312 2.234375 -14.53125 C 2.003906 -14.738281 1.722656 -14.84375 1.390625 -14.84375 L 1 -14.84375 L 1 -15.109375 L 5.796875 -15.109375 L 5.796875 -14.84375 L 5.40625 -14.84375 C 5.070312 -14.84375 4.785156 -14.738281 4.546875 -14.53125 C 4.316406 -14.320312 4.203125 -14.066406 4.203125 -13.765625 L 4.203125 -5.59375 C 4.203125 -3.957031 4.617188 -2.671875 5.453125 -1.734375 C 6.285156 -0.796875 7.457031 -0.328125 8.96875 -0.328125 C 10.488281 -0.328125 11.707031 -0.769531 12.625 -1.65625 C 13.539062 -2.550781 14 -3.769531 14 -5.3125 L 14 -13.765625 C 13.976562 -14.085938 13.851562 -14.347656 13.625 -14.546875 C 13.40625 -14.742188 13.125 -14.84375 12.78125 -14.84375 L 12.40625 -14.84375 L 12.40625 -15.109375 L 16.734375 -15.109375 Z M 16.734375 -14.84375 "/></g></g></g><g fill="#fbfbf5" fill-opacity="1"><g transform="translate(285.919658, 272.682668)"><g><path d="M 8.109375 -14.375 L 8.109375 -1.578125 C 8.117188 -1.066406 8.367188 -0.679688 8.859375 -0.421875 C 9.078125 -0.304688 9.320312 -0.25 9.59375 -0.25 L 9.875 -0.25 L 9.875 0 L 4.6875 0 L 4.6875 -0.25 L 4.984375 -0.25 C 5.390625 -0.25 5.734375 -0.382812 6.015625 -0.65625 C 6.296875 -0.925781 6.445312 -1.242188 6.46875 -1.609375 L 6.46875 -14.375 L 1.90625 -14.375 C 1.519531 -14.375 1.210938 -14.25 0.984375 -14 C 0.765625 -13.75 0.65625 -13.445312 0.65625 -13.09375 L 0.65625 -12.6875 L 0.375 -12.6875 L 0.375 -15.53125 C 0.707031 -15.394531 1.179688 -15.289062 1.796875 -15.21875 C 2.410156 -15.15625 2.867188 -15.125 3.171875 -15.125 L 11.375 -15.125 C 12.582031 -15.125 13.523438 -15.257812 14.203125 -15.53125 L 14.203125 -12.6875 L 13.921875 -12.6875 L 13.921875 -13.09375 C 13.921875 -13.445312 13.800781 -13.75 13.5625 -14 C 13.332031 -14.25 13.03125 -14.375 12.65625 -14.375 Z M 8.109375 -14.375 "/></g></g></g><g fill="#fbfbf5" fill-opacity="1"><g transform="translate(300.462248, 272.682668)"><g><path d="M 16.234375 -14.84375 L 15.9375 -14.84375 C 15.476562 -14.84375 15.039062 -14.722656 14.625 -14.484375 C 14.21875 -14.242188 13.882812 -13.9375 13.625 -13.5625 L 8.78125 -6.25 L 8.78125 -1.609375 C 8.78125 -1.242188 8.921875 -0.925781 9.203125 -0.65625 C 9.492188 -0.382812 9.84375 -0.25 10.25 -0.25 L 10.546875 -0.25 L 10.546875 0 L 5.390625 0 L 5.390625 -0.25 L 5.6875 -0.25 C 6.09375 -0.25 6.4375 -0.382812 6.71875 -0.65625 C 7.007812 -0.925781 7.15625 -1.242188 7.15625 -1.609375 L 7.15625 -6.265625 L 2.484375 -13.59375 C 1.921875 -14.425781 1.148438 -14.84375 0.171875 -14.84375 L -0.125 -14.84375 L -0.125 -15.109375 L 5.71875 -15.109375 L 5.71875 -14.84375 L 5.40625 -14.84375 C 5.09375 -14.84375 4.863281 -14.742188 4.71875 -14.546875 C 4.570312 -14.347656 4.5 -14.175781 4.5 -14.03125 C 4.5 -13.882812 4.519531 -13.753906 4.5625 -13.640625 L 8.234375 -7.125 L 12.125 -13.625 C 12.175781 -13.75 12.203125 -13.882812 12.203125 -14.03125 C 12.203125 -14.175781 12.128906 -14.347656 11.984375 -14.546875 C 11.847656 -14.742188 11.613281 -14.84375 11.28125 -14.84375 L 10.96875 -14.84375 L 10.96875 -15.109375 L 16.234375 -15.109375 Z M 16.234375 -14.84375 "/></g></g></g><g fill="#fbfbf5" fill-opacity="1"><g transform="translate(121.603333, 226.901762)"><g><path d="M 96.640625 -90.140625 C 96.640625 -84.796875 95.300781 -80.015625 92.625 -75.796875 C 89.945312 -71.585938 86.503906 -68.6875 82.296875 -67.09375 C 95.492188 -66.414062 105.113281 -61.238281 111.15625 -51.5625 C 114.226562 -46.664062 115.765625 -40.628906 115.765625 -33.453125 C 115.765625 -26.285156 113.003906 -19.742188 107.484375 -13.828125 C 101.960938 -7.910156 94.929688 -3.695312 86.390625 -1.1875 C 77.859375 1.3125 68.867188 2.5625 59.421875 2.5625 C 35.859375 2.5625 19.007812 -3.695312 8.875 -16.21875 C 2.382812 -24.1875 -0.859375 -34.941406 -0.859375 -48.484375 C -0.859375 -50.765625 -0.742188 -53.039062 -0.515625 -55.3125 L 1.203125 -55.484375 C 1.992188 -35.910156 8.992188 -21.910156 22.203125 -13.484375 L 22.203125 -107.21875 C 22.085938 -111.425781 20.207031 -114.5 16.5625 -116.4375 C 14.96875 -117.351562 13.203125 -117.8125 11.265625 -117.8125 L 9.046875 -117.8125 L 9.046875 -119.515625 L 52.421875 -119.515625 C 65.054688 -119.515625 75.582031 -116.976562 84 -111.90625 C 92.425781 -106.84375 96.640625 -99.585938 96.640625 -90.140625 Z M 52.59375 -5.46875 C 63.175781 -5.46875 71.453125 -8.253906 77.421875 -13.828125 C 83.398438 -19.410156 86.390625 -26.753906 86.390625 -35.859375 C 86.390625 -41.546875 85.335938 -46.351562 83.234375 -50.28125 C 81.128906 -54.207031 78.367188 -57.140625 74.953125 -59.078125 C 68.691406 -62.828125 61.578125 -64.703125 53.609375 -64.703125 L 53.609375 -66.25 C 57.253906 -66.25 60.328125 -67.554688 62.828125 -70.171875 C 67.148438 -74.722656 69.3125 -80.925781 69.3125 -88.78125 C 69.3125 -96.632812 67.578125 -102.4375 64.109375 -106.1875 C 60.640625 -109.945312 55.207031 -111.941406 47.8125 -112.171875 L 47.8125 -5.640625 C 49.40625 -5.523438 51 -5.46875 52.59375 -5.46875 Z M 52.59375 -5.46875 "/></g></g></g><g clip-path="url(#dbb805d580)"><g clip-path="url(#c60840077f)"><path fill="#cb0f74" d="M 180.589844 84.746094 L 199.628906 84.746094 L 199.628906 103.785156 L 180.589844 103.785156 Z M 180.589844 84.746094 " fill-opacity="1" fill-rule="nonzero"/></g></g><g clip-path="url(#1c50c33330)"><g clip-path="url(#141f154f16)"><path fill="#fbfbf5" d="M 221.992188 148.929688 L 234.402344 148.929688 L 234.402344 161.339844 L 221.992188 161.339844 Z M 221.992188 148.929688 " fill-opacity="1" fill-rule="nonzero"/></g></g><g clip-path="url(#f11a9db4f5)"><g clip-path="url(#dc9afa4656)"><path fill="#cb0f74" d="M 138.757812 258.089844 L 154.875 258.089844 L 154.875 274.207031 L 138.757812 274.207031 Z M 138.757812 258.089844 " fill-opacity="1" fill-rule="nonzero"/></g></g><g fill="#cb0f74" fill-opacity="1"><g transform="translate(76.887772, 254.095392)"><g><path d="M 48.203125 -58.0625 L 48.203125 -13.078125 C 48.203125 -9.972656 49.335938 -7.316406 51.609375 -5.109375 C 53.878906 -2.898438 56.566406 -1.796875 59.671875 -1.796875 L 61.828125 -1.796875 L 62 0 L 7.53125 0 L 7.53125 -1.796875 L 9.859375 -1.796875 C 12.960938 -1.796875 15.617188 -2.898438 17.828125 -5.109375 C 20.035156 -7.316406 21.203125 -9.972656 21.328125 -13.078125 L 21.328125 -112.890625 C 21.085938 -115.878906 19.863281 -118.421875 17.65625 -120.515625 C 15.445312 -122.609375 12.847656 -123.65625 9.859375 -123.65625 L 7.53125 -123.65625 L 7.53125 -125.4375 L 76.15625 -125.4375 C 81.414062 -125.4375 86.015625 -125.851562 89.953125 -126.6875 C 93.898438 -127.53125 96.472656 -128.191406 97.671875 -128.671875 L 97.671875 -98.375 L 95.875 -98.375 L 95.875 -100.171875 C 95.875 -107.335938 93.1875 -112.414062 87.8125 -115.40625 C 85.300781 -116.84375 82.3125 -117.617188 78.84375 -117.734375 L 48.203125 -117.734375 L 48.203125 -65.59375 L 99.8125 -65.59375 C 104.238281 -65.707031 107.882812 -67.226562 110.75 -70.15625 C 113.613281 -73.082031 115.046875 -76.695312 115.046875 -81 L 115.046875 -82.609375 L 116.84375 -82.609375 L 116.84375 -41.21875 L 115.046875 -41.21875 L 115.046875 -42.65625 C 115.046875 -47.070312 113.640625 -50.710938 110.828125 -53.578125 C 108.023438 -56.441406 104.472656 -57.9375 100.171875 -58.0625 Z M 48.203125 -58.0625 "/></g></g></g></svg>