<svg xmlns="http://www.w3.org/2000/svg" xmlns:xlink="http://www.w3.org/1999/xlink" width="500" zoomAndPan="magnify" viewBox="0 0 375 374.999991" height="500" preserveAspectRatio="xMidYMid meet" version="1.0"><defs><g/><clipPath id="386a662690"><path d="M 180.589844 73.726562 L 199.628906 73.726562 L 199.628906 92.765625 L 180.589844 92.765625 Z M 180.589844 73.726562 " clip-rule="nonzero"/></clipPath><clipPath id="0b04779bc9"><path d="M 190.109375 73.726562 C 184.851562 73.726562 180.589844 77.988281 180.589844 83.246094 C 180.589844 88.503906 184.851562 92.765625 190.109375 92.765625 C 195.367188 92.765625 199.628906 88.503906 199.628906 83.246094 C 199.628906 77.988281 195.367188 73.726562 190.109375 73.726562 Z M 190.109375 73.726562 " clip-rule="nonzero"/></clipPath><clipPath id="3269fddbbe"><path d="M 136.425781 179.367188 L 148.835938 179.367188 L 148.835938 191.773438 L 136.425781 191.773438 Z M 136.425781 179.367188 " clip-rule="nonzero"/></clipPath><clipPath id="64fde56aae"><path d="M 142.632812 179.367188 C 139.203125 179.367188 136.425781 182.144531 136.425781 185.570312 C 136.425781 188.996094 139.203125 191.773438 142.632812 191.773438 C 146.058594 191.773438 148.835938 188.996094 148.835938 185.570312 C 148.835938 182.144531 146.058594 179.367188 142.632812 179.367188 Z M 142.632812 179.367188 " clip-rule="nonzero"/></clipPath><clipPath id="32db39333c"><path d="M 138.757812 258.089844 L 154.875 258.089844 L 154.875 274.207031 L 138.757812 274.207031 Z M 138.757812 258.089844 " clip-rule="nonzero"/></clipPath><clipPath id="d6ac5ec258"><path d="M 146.816406 258.089844 C 142.363281 258.089844 138.757812 261.699219 138.757812 266.148438 C 138.757812 270.601562 142.363281 274.207031 146.816406 274.207031 C 151.265625 274.207031 154.875 270.601562 154.875 266.148438 C 154.875 261.699219 151.265625 258.089844 146.816406 258.089844 Z M 146.816406 258.089844 " clip-rule="nonzero"/></clipPath></defs><g fill="#000000" fill-opacity="1"><g transform="translate(85.773426, 273.702342)"><g><path d="M 11.875 -17.34375 L 11.875 -15.234375 L 11.625 -15.234375 L 11.625 -15.609375 C 11.625 -15.941406 11.503906 -16.226562 11.265625 -16.46875 C 11.035156 -16.71875 10.742188 -16.84375 10.390625 -16.84375 L 5.078125 -16.84375 L 5.078125 -9.0625 L 9.34375 -9.0625 C 9.675781 -9.082031 9.957031 -9.207031 10.1875 -9.4375 C 10.425781 -9.675781 10.546875 -9.960938 10.546875 -10.296875 L 10.546875 -10.671875 L 10.796875 -10.671875 L 10.796875 -6.703125 L 10.546875 -6.703125 L 10.546875 -7.078125 C 10.546875 -7.410156 10.429688 -7.691406 10.203125 -7.921875 C 9.984375 -8.160156 9.703125 -8.289062 9.359375 -8.3125 L 5.078125 -8.3125 L 5.078125 -1.84375 C 5.078125 -1.40625 5.238281 -1.03125 5.5625 -0.71875 C 5.882812 -0.40625 6.265625 -0.25 6.703125 -0.25 L 7.015625 -0.25 L 7.015625 0 L 1.515625 0 L 1.515625 -0.25 L 1.84375 -0.25 C 2.269531 -0.25 2.640625 -0.40625 2.953125 -0.71875 C 3.265625 -1.03125 3.429688 -1.40625 3.453125 -1.84375 L 3.453125 -15.9375 C 3.453125 -16.332031 3.285156 -16.671875 2.953125 -16.953125 C 2.628906 -17.234375 2.257812 -17.375 1.84375 -17.375 L 1.53125 -17.375 L 1.515625 -17.625 L 8.890625 -17.625 C 9.410156 -17.625 9.972656 -17.671875 10.578125 -17.765625 C 11.191406 -17.867188 11.625 -17.972656 11.875 -18.078125 Z M 11.875 -17.34375 "/></g></g></g><g fill="#000000" fill-opacity="1"><g transform="translate(99.392844, 273.702342)"><g><path d="M 16.609375 -0.25 L 16.8125 -0.25 L 16.8125 0 L 11.65625 0 L 11.65625 -0.25 L 11.859375 -0.25 C 12.171875 -0.25 12.410156 -0.359375 12.578125 -0.578125 C 12.753906 -0.796875 12.84375 -1 12.84375 -1.1875 C 12.84375 -1.382812 12.804688 -1.578125 12.734375 -1.765625 L 11.359375 -5.109375 L 4.984375 -5.109375 L 3.59375 -1.84375 C 3.507812 -1.625 3.46875 -1.414062 3.46875 -1.21875 C 3.46875 -1.03125 3.550781 -0.820312 3.71875 -0.59375 C 3.894531 -0.363281 4.148438 -0.25 4.484375 -0.25 L 4.6875 -0.25 L 4.6875 0 L -0.125 0 L -0.125 -0.25 L 0.078125 -0.25 C 0.429688 -0.25 0.785156 -0.367188 1.140625 -0.609375 C 1.503906 -0.859375 1.800781 -1.226562 2.03125 -1.71875 C 5.707031 -9.5625 7.625 -13.671875 7.78125 -14.046875 C 8.0625 -14.753906 8.210938 -15.222656 8.234375 -15.453125 L 8.453125 -15.453125 L 14.671875 -1.71875 C 15.160156 -0.738281 15.804688 -0.25 16.609375 -0.25 Z M 5.3125 -5.859375 L 11.046875 -5.859375 L 8.234375 -12.765625 Z M 5.3125 -5.859375 "/></g></g></g><g fill="#000000" fill-opacity="1"><g transform="translate(116.083558, 273.702342)"><g><path d="M 1.90625 -13.09375 L 1.90625 -12.6875 L 1.640625 -12.6875 L 1.640625 -15.53125 C 1.859375 -15.425781 2.253906 -15.335938 2.828125 -15.265625 C 3.410156 -15.191406 3.953125 -15.144531 4.453125 -15.125 L 10.25 -15.125 C 10.769531 -15.125 11.332031 -15.15625 11.9375 -15.21875 C 12.539062 -15.289062 12.925781 -15.367188 13.09375 -15.453125 L 13.09375 -15.234375 L 3.53125 -0.75 L 10.421875 -0.75 C 11.191406 -0.769531 11.84375 -0.910156 12.375 -1.171875 C 12.914062 -1.429688 13.320312 -1.742188 13.59375 -2.109375 C 13.875 -2.484375 14.148438 -2.976562 14.421875 -3.59375 L 14.671875 -3.59375 L 13.3125 0 L 1.265625 0 L 1.265625 -0.21875 L 10.640625 -14.375 L 3.140625 -14.375 C 2.640625 -14.351562 2.28125 -14.132812 2.0625 -13.71875 C 1.957031 -13.519531 1.90625 -13.3125 1.90625 -13.09375 Z M 1.90625 -13.09375 "/></g></g></g><g fill="#000000" fill-opacity="1"><g transform="translate(131.389671, 273.702342)"><g><path d="M 1.734375 -0.25 C 2.191406 -0.25 2.585938 -0.382812 2.921875 -0.65625 C 3.253906 -0.925781 3.421875 -1.242188 3.421875 -1.609375 L 3.421875 -13.484375 C 3.421875 -13.859375 3.253906 -14.175781 2.921875 -14.4375 C 2.585938 -14.707031 2.1875 -14.84375 1.71875 -14.84375 L 1.390625 -14.84375 L 1.390625 -15.109375 L 7.078125 -15.109375 L 7.078125 -14.84375 L 6.75 -14.84375 C 6.289062 -14.84375 5.894531 -14.71875 5.5625 -14.46875 C 5.238281 -14.21875 5.0625 -13.910156 5.03125 -13.546875 L 5.03125 -1.578125 C 5.050781 -1.210938 5.226562 -0.898438 5.5625 -0.640625 C 5.894531 -0.378906 6.289062 -0.25 6.75 -0.25 L 7.078125 -0.25 L 7.09375 0 L 1.390625 0 L 1.390625 -0.25 Z M 1.734375 -0.25 "/></g></g></g><g fill="#000000" fill-opacity="1"><g transform="translate(139.854864, 273.702342)"><g/></g></g><g fill="#000000" fill-opacity="1"><g transform="translate(146.148499, 273.702342)"><g/></g></g><g fill="#000000" fill-opacity="1"><g transform="translate(152.445837, 273.702342)"><g><path d="M 1.84375 -0.25 C 2.269531 -0.25 2.640625 -0.40625 2.953125 -0.71875 C 3.265625 -1.03125 3.429688 -1.40625 3.453125 -1.84375 L 3.453125 -15.78125 C 3.429688 -16.21875 3.265625 -16.59375 2.953125 -16.90625 C 2.640625 -17.21875 2.269531 -17.375 1.84375 -17.375 L 1.515625 -17.375 L 1.515625 -17.625 L 7.015625 -17.625 L 7.015625 -17.375 L 6.703125 -17.375 C 6.097656 -17.375 5.632812 -17.113281 5.3125 -16.59375 C 5.15625 -16.332031 5.078125 -16.0625 5.078125 -15.78125 L 5.078125 -0.78125 L 8.6875 -0.78125 C 9.925781 -0.78125 10.875 -1.054688 11.53125 -1.609375 C 12.1875 -2.160156 12.734375 -2.984375 13.171875 -4.078125 L 13.421875 -4.078125 L 11.953125 0 L 1.515625 0 L 1.515625 -0.25 Z M 1.84375 -0.25 "/></g></g></g><g fill="#000000" fill-opacity="1"><g transform="translate(166.59392, 273.702342)"><g><path d="M 16.734375 -14.84375 L 16.359375 -14.84375 C 15.910156 -14.84375 15.566406 -14.671875 15.328125 -14.328125 C 15.222656 -14.171875 15.164062 -13.992188 15.15625 -13.796875 L 15.15625 -5.3125 C 15.15625 -3.5625 14.597656 -2.175781 13.484375 -1.15625 C 12.367188 -0.144531 10.835938 0.359375 8.890625 0.359375 C 6.941406 0.359375 5.40625 -0.144531 4.28125 -1.15625 C 3.15625 -2.164062 2.59375 -3.539062 2.59375 -5.28125 L 2.59375 -13.765625 C 2.59375 -14.066406 2.472656 -14.320312 2.234375 -14.53125 C 2.003906 -14.738281 1.722656 -14.84375 1.390625 -14.84375 L 1 -14.84375 L 1 -15.109375 L 5.796875 -15.109375 L 5.796875 -14.84375 L 5.40625 -14.84375 C 5.070312 -14.84375 4.785156 -14.738281 4.546875 -14.53125 C 4.316406 -14.320312 4.203125 -14.066406 4.203125 -13.765625 L 4.203125 -5.59375 C 4.203125 -3.957031 4.617188 -2.671875 5.453125 -1.734375 C 6.285156 -0.796875 7.457031 -0.328125 8.96875 -0.328125 C 10.488281 -0.328125 11.707031 -0.769531 12.625 -1.65625 C 13.539062 -2.550781 14 -3.769531 14 -5.3125 L 14 -13.765625 C 13.976562 -14.085938 13.851562 -14.347656 13.625 -14.546875 C 13.40625 -14.742188 13.125 -14.84375 12.78125 -14.84375 L 12.40625 -14.84375 L 12.40625 -15.109375 L 16.734375 -15.109375 Z M 16.734375 -14.84375 "/></g></g></g><g fill="#000000" fill-opacity="1"><g transform="translate(184.216087, 273.702342)"><g><path d="M 16.0625 0 L 10.09375 0 L 10.09375 -0.25 L 10.40625 -0.25 C 10.738281 -0.25 10.984375 -0.363281 11.140625 -0.59375 C 11.304688 -0.820312 11.390625 -1.003906 11.390625 -1.140625 C 11.390625 -1.285156 11.347656 -1.429688 11.265625 -1.578125 L 7.78125 -6.5625 L 4.109375 -1.609375 C 3.992188 -1.460938 3.9375 -1.3125 3.9375 -1.15625 C 3.9375 -1.007812 4.015625 -0.820312 4.171875 -0.59375 C 4.328125 -0.363281 4.582031 -0.25 4.9375 -0.25 L 5.234375 -0.25 L 5.234375 0 L -0.25 0 L -0.25 -0.25 L 0.078125 -0.25 C 0.984375 -0.25 1.78125 -0.660156 2.46875 -1.484375 L 7.15625 -7.46875 L 2.90625 -13.59375 C 2.644531 -13.945312 2.289062 -14.242188 1.84375 -14.484375 C 1.40625 -14.722656 0.953125 -14.84375 0.484375 -14.84375 L 0.15625 -14.84375 L 0.15625 -15.109375 L 6.078125 -15.109375 L 6.078125 -14.84375 L 5.765625 -14.84375 C 5.429688 -14.84375 5.179688 -14.726562 5.015625 -14.5 C 4.859375 -14.28125 4.78125 -14.097656 4.78125 -13.953125 C 4.78125 -13.816406 4.832031 -13.671875 4.9375 -13.515625 L 8.140625 -8.9375 L 11.1875 -13.515625 C 11.28125 -13.648438 11.328125 -13.789062 11.328125 -13.9375 C 11.328125 -14.09375 11.25 -14.28125 11.09375 -14.5 C 10.9375 -14.726562 10.691406 -14.84375 10.359375 -14.84375 L 10.046875 -14.84375 L 10.046875 -15.109375 L 15.640625 -15.109375 L 15.640625 -14.84375 L 15.28125 -14.84375 C 14.8125 -14.84375 14.363281 -14.722656 13.9375 -14.484375 C 13.507812 -14.242188 13.15625 -13.9375 12.875 -13.5625 L 8.8125 -7.921875 L 13.328125 -1.484375 C 13.691406 -0.992188 14.101562 -0.664062 14.5625 -0.5 C 15.03125 -0.332031 15.421875 -0.25 15.734375 -0.25 L 16.0625 -0.25 Z M 16.0625 0 "/></g></g></g><g fill="#000000" fill-opacity="1"><g transform="translate(199.97534, 273.702342)"><g><path d="M 1.734375 -0.25 C 2.140625 -0.25 2.476562 -0.378906 2.75 -0.640625 C 3.03125 -0.898438 3.179688 -1.210938 3.203125 -1.578125 L 3.203125 -13.546875 C 3.203125 -13.910156 3.054688 -14.21875 2.765625 -14.46875 C 2.484375 -14.71875 2.140625 -14.84375 1.734375 -14.84375 L 1.390625 -14.84375 L 1.390625 -15.109375 L 8.734375 -15.109375 C 9.421875 -15.109375 10.023438 -15.15625 10.546875 -15.25 C 11.066406 -15.351562 11.398438 -15.4375 11.546875 -15.5 L 11.546875 -12.640625 L 11.28125 -12.65625 L 11.28125 -13.03125 C 11.28125 -13.382812 11.160156 -13.6875 10.921875 -13.9375 C 10.691406 -14.195312 10.390625 -14.328125 10.015625 -14.328125 L 4.78125 -14.328125 L 4.78125 -7.921875 L 9.09375 -7.921875 C 9.425781 -7.921875 9.679688 -8.019531 9.859375 -8.21875 C 10.035156 -8.425781 10.125 -8.679688 10.125 -8.984375 L 10.125 -9.3125 L 10.390625 -9.3125 L 10.390625 -5.796875 L 10.125 -5.796875 L 10.125 -6.109375 C 10.125 -6.585938 9.945312 -6.910156 9.59375 -7.078125 C 9.457031 -7.128906 9.3125 -7.160156 9.15625 -7.171875 L 4.78125 -7.171875 L 4.78125 -0.78125 L 8.734375 -0.78125 C 9.503906 -0.78125 10.15625 -0.910156 10.6875 -1.171875 C 11.21875 -1.441406 11.617188 -1.757812 11.890625 -2.125 C 12.171875 -2.5 12.453125 -2.988281 12.734375 -3.59375 L 12.984375 -3.59375 L 11.609375 0 L 1.390625 0 L 1.390625 -0.25 Z M 1.734375 -0.25 "/></g></g></g><g fill="#000000" fill-opacity="1"><g transform="translate(213.720634, 273.702342)"><g/></g></g><g fill="#000000" fill-opacity="1"><g transform="translate(220.014269, 273.702342)"><g><path d="M 7.65625 0 L 1.515625 0 L 1.53125 -0.25 L 1.84375 -0.25 C 2.269531 -0.25 2.640625 -0.398438 2.953125 -0.703125 C 3.265625 -1.003906 3.429688 -1.375 3.453125 -1.8125 L 3.453125 -15.8125 C 3.453125 -16.25 3.289062 -16.617188 2.96875 -16.921875 C 2.644531 -17.222656 2.269531 -17.375 1.84375 -17.375 L 1.53125 -17.375 L 1.515625 -17.625 L 6.515625 -17.625 C 8.242188 -17.625 9.585938 -17.238281 10.546875 -16.46875 C 11.503906 -15.707031 11.984375 -14.691406 11.984375 -13.421875 C 11.984375 -12.410156 11.710938 -11.570312 11.171875 -10.90625 C 10.640625 -10.25 9.988281 -9.8125 9.21875 -9.59375 C 10.539062 -9.382812 11.585938 -8.835938 12.359375 -7.953125 C 13.128906 -7.066406 13.515625 -5.945312 13.515625 -4.59375 C 13.515625 -3.238281 13 -2.132812 11.96875 -1.28125 C 10.9375 -0.425781 9.5 0 7.65625 0 Z M 5.078125 -0.90625 L 7.546875 -0.90625 C 7.566406 -0.90625 7.585938 -0.90625 7.609375 -0.90625 C 8.878906 -0.90625 9.863281 -1.253906 10.5625 -1.953125 C 11.269531 -2.648438 11.625 -3.632812 11.625 -4.90625 C 11.625 -5.625 11.503906 -6.253906 11.265625 -6.796875 C 11.023438 -7.347656 10.71875 -7.785156 10.34375 -8.109375 C 9.375 -8.910156 7.914062 -9.3125 5.96875 -9.3125 C 5.96875 -9.3125 5.957031 -9.3125 5.9375 -9.3125 L 5.9375 -9.546875 C 5.957031 -9.546875 6.035156 -9.546875 6.171875 -9.546875 C 6.316406 -9.546875 6.523438 -9.5625 6.796875 -9.59375 C 7.066406 -9.625 7.367188 -9.679688 7.703125 -9.765625 C 8.035156 -9.847656 8.335938 -9.984375 8.609375 -10.171875 C 8.878906 -10.359375 9.128906 -10.578125 9.359375 -10.828125 C 9.847656 -11.378906 10.09375 -12.203125 10.09375 -13.296875 C 10.09375 -14.398438 9.773438 -15.257812 9.140625 -15.875 C 8.515625 -16.5 7.609375 -16.8125 6.421875 -16.8125 L 5.078125 -16.8125 Z M 5.078125 -0.90625 "/></g></g></g><g fill="#000000" fill-opacity="1"><g transform="translate(234.766542, 273.702342)"><g><path d="M 1.734375 -0.25 C 2.140625 -0.25 2.476562 -0.378906 2.75 -0.640625 C 3.03125 -0.898438 3.179688 -1.210938 3.203125 -1.578125 L 3.203125 -13.546875 C 3.203125 -13.910156 3.054688 -14.21875 2.765625 -14.46875 C 2.484375 -14.71875 2.140625 -14.84375 1.734375 -14.84375 L 1.390625 -14.84375 L 1.390625 -15.109375 L 8.734375 -15.109375 C 9.421875 -15.109375 10.023438 -15.15625 10.546875 -15.25 C 11.066406 -15.351562 11.398438 -15.4375 11.546875 -15.5 L 11.546875 -12.640625 L 11.28125 -12.65625 L 11.28125 -13.03125 C 11.28125 -13.382812 11.160156 -13.6875 10.921875 -13.9375 C 10.691406 -14.195312 10.390625 -14.328125 10.015625 -14.328125 L 4.78125 -14.328125 L 4.78125 -7.921875 L 9.09375 -7.921875 C 9.425781 -7.921875 9.679688 -8.019531 9.859375 -8.21875 C 10.035156 -8.425781 10.125 -8.679688 10.125 -8.984375 L 10.125 -9.3125 L 10.390625 -9.3125 L 10.390625 -5.796875 L 10.125 -5.796875 L 10.125 -6.109375 C 10.125 -6.585938 9.945312 -6.910156 9.59375 -7.078125 C 9.457031 -7.128906 9.3125 -7.160156 9.15625 -7.171875 L 4.78125 -7.171875 L 4.78125 -0.78125 L 8.734375 -0.78125 C 9.503906 -0.78125 10.15625 -0.910156 10.6875 -1.171875 C 11.21875 -1.441406 11.617188 -1.757812 11.890625 -2.125 C 12.171875 -2.5 12.453125 -2.988281 12.734375 -3.59375 L 12.984375 -3.59375 L 11.609375 0 L 1.390625 0 L 1.390625 -0.25 Z M 1.734375 -0.25 "/></g></g></g><g fill="#000000" fill-opacity="1"><g transform="translate(248.511836, 273.702342)"><g><path d="M 16.609375 -0.25 L 16.8125 -0.25 L 16.8125 0 L 11.65625 0 L 11.65625 -0.25 L 11.859375 -0.25 C 12.171875 -0.25 12.410156 -0.359375 12.578125 -0.578125 C 12.753906 -0.796875 12.84375 -1 12.84375 -1.1875 C 12.84375 -1.382812 12.804688 -1.578125 12.734375 -1.765625 L 11.359375 -5.109375 L 4.984375 -5.109375 L 3.59375 -1.84375 C 3.507812 -1.625 3.46875 -1.414062 3.46875 -1.21875 C 3.46875 -1.03125 3.550781 -0.820312 3.71875 -0.59375 C 3.894531 -0.363281 4.148438 -0.25 4.484375 -0.25 L 4.6875 -0.25 L 4.6875 0 L -0.125 0 L -0.125 -0.25 L 0.078125 -0.25 C 0.429688 -0.25 0.785156 -0.367188 1.140625 -0.609375 C 1.503906 -0.859375 1.800781 -1.226562 2.03125 -1.71875 C 5.707031 -9.5625 7.625 -13.671875 7.78125 -14.046875 C 8.0625 -14.753906 8.210938 -15.222656 8.234375 -15.453125 L 8.453125 -15.453125 L 14.671875 -1.71875 C 15.160156 -0.738281 15.804688 -0.25 16.609375 -0.25 Z M 5.3125 -5.859375 L 11.046875 -5.859375 L 8.234375 -12.765625 Z M 5.3125 -5.859375 "/></g></g></g><g fill="#000000" fill-opacity="1"><g transform="translate(265.20255, 273.702342)"><g><path d="M 16.734375 -14.84375 L 16.359375 -14.84375 C 15.910156 -14.84375 15.566406 -14.671875 15.328125 -14.328125 C 15.222656 -14.171875 15.164062 -13.992188 15.15625 -13.796875 L 15.15625 -5.3125 C 15.15625 -3.5625 14.597656 -2.175781 13.484375 -1.15625 C 12.367188 -0.144531 10.835938 0.359375 8.890625 0.359375 C 6.941406 0.359375 5.40625 -0.144531 4.28125 -1.15625 C 3.15625 -2.164062 2.59375 -3.539062 2.59375 -5.28125 L 2.59375 -13.765625 C 2.59375 -14.066406 2.472656 -14.320312 2.234375 -14.53125 C 2.003906 -14.738281 1.722656 -14.84375 1.390625 -14.84375 L 1 -14.84375 L 1 -15.109375 L 5.796875 -15.109375 L 5.796875 -14.84375 L 5.40625 -14.84375 C 5.070312 -14.84375 4.785156 -14.738281 4.546875 -14.53125 C 4.316406 -14.320312 4.203125 -14.066406 4.203125 -13.765625 L 4.203125 -5.59375 C 4.203125 -3.957031 4.617188 -2.671875 5.453125 -1.734375 C 6.285156 -0.796875 7.457031 -0.328125 8.96875 -0.328125 C 10.488281 -0.328125 11.707031 -0.769531 12.625 -1.65625 C 13.539062 -2.550781 14 -3.769531 14 -5.3125 L 14 -13.765625 C 13.976562 -14.085938 13.851562 -14.347656 13.625 -14.546875 C 13.40625 -14.742188 13.125 -14.84375 12.78125 -14.84375 L 12.40625 -14.84375 L 12.40625 -15.109375 L 16.734375 -15.109375 Z M 16.734375 -14.84375 "/></g></g></g><g fill="#000000" fill-opacity="1"><g transform="translate(282.824725, 273.702342)"><g><path d="M 8.109375 -14.375 L 8.109375 -1.578125 C 8.117188 -1.066406 8.367188 -0.679688 8.859375 -0.421875 C 9.078125 -0.304688 9.320312 -0.25 9.59375 -0.25 L 9.875 -0.25 L 9.875 0 L 4.6875 0 L 4.6875 -0.25 L 4.984375 -0.25 C 5.390625 -0.25 5.734375 -0.382812 6.015625 -0.65625 C 6.296875 -0.925781 6.445312 -1.242188 6.46875 -1.609375 L 6.46875 -14.375 L 1.90625 -14.375 C 1.519531 -14.375 1.210938 -14.25 0.984375 -14 C 0.765625 -13.75 0.65625 -13.445312 0.65625 -13.09375 L 0.65625 -12.6875 L 0.375 -12.6875 L 0.375 -15.53125 C 0.707031 -15.394531 1.179688 -15.289062 1.796875 -15.21875 C 2.410156 -15.15625 2.867188 -15.125 3.171875 -15.125 L 11.375 -15.125 C 12.582031 -15.125 13.523438 -15.257812 14.203125 -15.53125 L 14.203125 -12.6875 L 13.921875 -12.6875 L 13.921875 -13.09375 C 13.921875 -13.445312 13.800781 -13.75 13.5625 -14 C 13.332031 -14.25 13.03125 -14.375 12.65625 -14.375 Z M 8.109375 -14.375 "/></g></g></g><g fill="#000000" fill-opacity="1"><g transform="translate(297.375603, 273.702342)"><g><path d="M 16.234375 -14.84375 L 15.9375 -14.84375 C 15.476562 -14.84375 15.039062 -14.722656 14.625 -14.484375 C 14.21875 -14.242188 13.882812 -13.9375 13.625 -13.5625 L 8.78125 -6.25 L 8.78125 -1.609375 C 8.78125 -1.242188 8.921875 -0.925781 9.203125 -0.65625 C 9.492188 -0.382812 9.84375 -0.25 10.25 -0.25 L 10.546875 -0.25 L 10.546875 0 L 5.390625 0 L 5.390625 -0.25 L 5.6875 -0.25 C 6.09375 -0.25 6.4375 -0.382812 6.71875 -0.65625 C 7.007812 -0.925781 7.15625 -1.242188 7.15625 -1.609375 L 7.15625 -6.265625 L 2.484375 -13.59375 C 1.921875 -14.425781 1.148438 -14.84375 0.171875 -14.84375 L -0.125 -14.84375 L -0.125 -15.109375 L 5.71875 -15.109375 L 5.71875 -14.84375 L 5.40625 -14.84375 C 5.09375 -14.84375 4.863281 -14.742188 4.71875 -14.546875 C 4.570312 -14.347656 4.5 -14.175781 4.5 -14.03125 C 4.5 -13.882812 4.519531 -13.753906 4.5625 -13.640625 L 8.234375 -7.125 L 12.125 -13.625 C 12.175781 -13.75 12.203125 -13.882812 12.203125 -14.03125 C 12.203125 -14.175781 12.128906 -14.347656 11.984375 -14.546875 C 11.847656 -14.742188 11.613281 -14.84375 11.28125 -14.84375 L 10.96875 -14.84375 L 10.96875 -15.109375 L 16.234375 -15.109375 Z M 16.234375 -14.84375 "/></g></g></g><g fill="#000000" fill-opacity="1"><g transform="translate(139.402495, 222.51523)"><g><path d="M 67.609375 -74.4375 C 65.554688 -72.28125 63.222656 -70.6875 60.609375 -69.65625 C 71.765625 -68.0625 80.242188 -64.101562 86.046875 -57.78125 C 91.859375 -51.46875 94.765625 -43.757812 94.765625 -34.65625 C 94.765625 -23.613281 90.320312 -14.675781 81.4375 -7.84375 C 72.5625 -1.019531 60.894531 2.390625 46.4375 2.390625 C 31.976562 2.390625 20.648438 -1.164062 12.453125 -8.28125 C 4.265625 -15.394531 0.171875 -25.441406 0.171875 -38.421875 C 0.171875 -39.097656 0.171875 -39.78125 0.171875 -40.46875 L 2.046875 -40.8125 C 4.328125 -23.84375 11.382812 -12.859375 23.21875 -7.859375 L 23.21875 -107.21875 C 22.988281 -110.289062 21.820312 -112.820312 19.71875 -114.8125 C 17.613281 -116.8125 15.082031 -117.8125 12.125 -117.8125 L 10.078125 -117.8125 L 10.078125 -119.515625 L 38.765625 -119.515625 C 49.460938 -119.515625 58.023438 -117.066406 64.453125 -112.171875 C 70.878906 -107.273438 74.09375 -100.867188 74.09375 -92.953125 C 74.09375 -85.046875 71.929688 -78.875 67.609375 -74.4375 Z M 34.3125 -114.046875 L 34.3125 -4.78125 C 38.070312 -4.207031 42.398438 -3.921875 47.296875 -3.921875 C 58.222656 -3.921875 66.726562 -6.851562 72.8125 -12.71875 C 78.90625 -18.582031 81.953125 -26.179688 81.953125 -35.515625 C 81.953125 -40.523438 81.007812 -44.960938 79.125 -48.828125 C 77.25 -52.703125 74.890625 -55.71875 72.046875 -57.875 C 64.535156 -63.6875 53.953125 -66.59375 40.296875 -66.59375 C 40.179688 -66.59375 40.125 -66.59375 40.125 -66.59375 L 39.953125 -68.125 C 40.066406 -68.125 40.125 -68.125 40.125 -68.125 C 45.925781 -68.125 50.90625 -70.03125 55.0625 -73.84375 C 59.21875 -77.65625 61.296875 -83.546875 61.296875 -91.515625 C 61.296875 -106.535156 53.039062 -114.046875 36.53125 -114.046875 Z M 34.3125 -114.046875 "/></g></g></g><g clip-path="url(#386a662690)"><g clip-path="url(#0b04779bc9)"><path fill="#cb0f74" d="M 180.589844 73.726562 L 199.628906 73.726562 L 199.628906 92.765625 L 180.589844 92.765625 Z M 180.589844 73.726562 " fill-opacity="1" fill-rule="nonzero"/></g></g><g clip-path="url(#3269fddbbe)"><g clip-path="url(#64fde56aae)"><path fill="#000000" d="M 136.425781 179.367188 L 148.835938 179.367188 L 148.835938 191.773438 L 136.425781 191.773438 Z M 136.425781 179.367188 " fill-opacity="1" fill-rule="nonzero"/></g></g><g clip-path="url(#32db39333c)"><g clip-path="url(#d6ac5ec258)"><path fill="#cb0f74" d="M 138.757812 258.089844 L 154.875 258.089844 L 154.875 274.207031 L 138.757812 274.207031 Z M 138.757812 258.089844 " fill-opacity="1" fill-rule="nonzero"/></g></g><g fill="#cb0f74" fill-opacity="1"><g transform="translate(117.05944, 222.620056)"><g><path d="M 81.484375 -40.25 C 81.484375 -42.15625 80.835938 -43.773438 79.546875 -45.109375 C 78.265625 -46.453125 76.671875 -47.171875 74.765625 -47.265625 L 28.9375 -47.265625 L 28.9375 -10.453125 C 28.9375 -7.972656 29.84375 -5.847656 31.65625 -4.078125 C 33.46875 -2.316406 35.613281 -1.4375 38.09375 -1.4375 L 39.953125 -1.4375 L 39.953125 0 L 8.59375 0 L 8.59375 -1.4375 L 10.453125 -1.4375 C 12.929688 -1.4375 15.054688 -2.316406 16.828125 -4.078125 C 18.597656 -5.847656 19.53125 -7.972656 19.625 -10.453125 L 19.625 -90.65625 C 19.625 -92.945312 18.691406 -94.878906 16.828125 -96.453125 C 14.960938 -98.035156 12.835938 -98.828125 10.453125 -98.828125 L 8.734375 -98.828125 L 8.59375 -100.25 L 50.5625 -100.25 C 54.664062 -100.25 58.289062 -100.582031 61.4375 -101.25 C 64.59375 -101.925781 66.644531 -102.453125 67.59375 -102.828125 L 67.59375 -86.640625 L 66.171875 -86.640625 L 66.171875 -88.796875 C 66.171875 -90.703125 65.5 -92.347656 64.15625 -93.734375 C 62.820312 -95.117188 61.15625 -95.8125 59.15625 -95.8125 L 28.9375 -95.8125 L 28.9375 -51.5625 L 74.609375 -51.5625 C 76.523438 -51.65625 78.148438 -52.367188 79.484375 -53.703125 C 80.816406 -55.046875 81.484375 -56.71875 81.484375 -58.71875 L 81.484375 -60.71875 L 82.921875 -60.71875 L 82.921875 -38.09375 L 81.484375 -38.09375 Z M 81.484375 -40.25 "/></g></g></g></svg>